<svg xmlns="http://www.w3.org/2000/svg" viewBox="0 0 227.66 230.47"><defs><style>.cls-1{fill:#b46529;fill-rule:evenodd;}</style></defs><g id="Layer_2" data-name="Layer 2"><g id="Layer_2-2" data-name="Layer 2"><path class="cls-1" d="M105.31.07c-3.34.2-8.56.76-11.19,1.21A113,113,0,0,0,43.74,24,118,118,0,0,0,3.64,84.34C1.39,92.29.55,98.68.11,111.26a124.11,124.11,0,0,0,1.26,24.83,117.92,117.92,0,0,0,45,72.6,113,113,0,0,0,17.53,10.76c15.45,7.7,27,10.41,46.61,10.94,17.29.46,27.41-1,40.78-5.75a115,115,0,0,0,34.86-19.78,161.31,161.31,0,0,0,14.31-14.22,119.17,119.17,0,0,0,24.17-47.89c1.92-7.65,2.67-14,3-25.32a149,149,0,0,0-.63-16.89,107.33,107.33,0,0,0-4.41-19A123,123,0,0,0,161.74,11,109.49,109.49,0,0,0,126.22.45C123,.12,108.84-.13,105.31.07m-2.46,2.74A53,53,0,0,0,92.39,4.38c-4.14,1-12.82,3.45-16.67,4.78A111.64,111.64,0,0,0,25,46.8,116.35,116.35,0,0,0,3.32,99.9a94.25,94.25,0,0,0-1.24,16.3,87.63,87.63,0,0,0,1.55,16.92c5.55,32.78,22.85,59.48,50.21,77.52a100.77,100.77,0,0,0,26.52,12.47c13.38,4.15,20.85,5.21,35.3,5a95.78,95.78,0,0,0,17.26-1.38c15.94-2.64,33.33-10.24,47.15-20.61a112.9,112.9,0,0,0,20.87-20.5,119.31,119.31,0,0,0,15.61-26.85,139.42,139.42,0,0,0,7.15-23.68,136.5,136.5,0,0,0,1.19-25.17c-.37-9-.83-12.48-2.53-19.18-9-35.62-33.9-65.26-66.71-79.46-8.75-3.78-19.26-6.79-27-7.72a212,212,0,0,0-25.8-.73M106,25.14c-1.52.77-5,3.92-8.58,7.68a34.9,34.9,0,0,1-2.8,2.8A6,6,0,0,1,93.81,34C93,32.07,92,30.7,91.29,30.7c-1.27,0-4.38,3-4.84,4.59-.23.81-.21,1.29.08,3.23a22.94,22.94,0,0,1,.29,2.33s-2.14,1-4.68,2.26C73.89,47,70.28,48.46,65.29,49.75c-6,1.55-6.28,1.83-7,7.12-.51,3.59-1,4.75-2.92,6.91-1.62,1.83-.88,2.61,1.33,1.42,2.59-1.41,3.11-2.4,3.11-6V56.63l3-1A88.64,88.64,0,0,0,92.32,39.87c1.94-1.51,4.18-3.24,5-3.83L98.74,35l1.52.84a7,7,0,0,0,2,.84,4,4,0,0,0,2.23-1.72c.34-.64.24-1.52-.34-2.94-1.07-2.62-.41-3.75,2.35-4.06,2.12-.23,2.45-.32,3.07-.85,1.27-1.07.59-2.3-1.39-2.48a3.42,3.42,0,0,0-2.19.54m24.11,3a19.41,19.41,0,0,0-2.8,5.62c-1.21,3.32-2.79,4.61-4.66,3.83-1.37-.57-1.41-1.14-.31-4.29a10.1,10.1,0,0,0,.55-1.88,15.81,15.81,0,0,0-2.19,1.63,35.3,35.3,0,0,1-3.19,2.34,10.08,10.08,0,0,1-4.47,1.25,2.18,2.18,0,0,0-1.09.18c-.28.45,2.11,2.07,3,2.07a9.6,9.6,0,0,0,2.19-.56c1.84-.65,2.12-.55,2.35.83.52,3.19,3.71,3.4,6.43.43,1.8-2,5.35-9.61,5.35-11.52,0-.88-.4-.86-1.21.07m7,1.37c-.92,1-3,6.24-3.24,8.34-.12.88-.09,1,.22,1.17s.51,0,.86-.45c1.23-1.52,3.14-6.67,3.14-8.5,0-1.15-.28-1.31-1-.56m12.05,2.35a2,2,0,0,0-.9.9,2.84,2.84,0,0,0,.52,2.47c.36.36.56.4,1.27.26,1.47-.28,2.1-.19,2.79.39,1.72,1.44,4.14-.46,2.58-2-.44-.44-.69-.5-1.93-.5h-1.43l-.59-.88a1.49,1.49,0,0,0-2.31-.62m-73.39.6a2.65,2.65,0,0,0-.11,2.69,1.27,1.27,0,0,0,1.85.11,3.82,3.82,0,0,0,1-2.34c-.12-.48-1-1-1.77-1a1.33,1.33,0,0,0-.93.54m-3.24,2.41c-1.14,1-.49,3.41.92,3.41a2.12,2.12,0,0,0,1.69-1.95,1.7,1.7,0,0,0-.6-1.35c-.73-.73-1.25-.76-2-.11m16.55,1.25c-.52.63.45,1.45,1.41,1.2.59-.16.55-.57-.1-1.08s-1-.53-1.31-.12m15.15,5.5-.72.79a6.39,6.39,0,0,1-1.38.85c-1.93.91-2.74,2.13-2.1,3.12a1.06,1.06,0,0,0,1,.51c.72,0,1.77-.66,1.77-1.11s.75-1,1.49-.83a2.1,2.1,0,0,0,1.15-.1,3.83,3.83,0,0,0,1.25-2.23c0-.5-.59-1-1.41-1.26-.56-.16-.72-.12-1.07.26m45.83.52a29,29,0,0,0-4.4,2.61c-.23.27-.06.29,1.4.17s1.72-.1,2.54.38a8.61,8.61,0,0,1,1.49,1.15,5.09,5.09,0,0,0,4.17,1.21A7.57,7.57,0,0,0,159,46.49c2.42-1.23,2.43-1.43.12-1.43-2.13,0-3.2-.44-6.14-2.51a2.5,2.5,0,0,0-2.86-.4m-36.37,2.56c0,.09-.19,1.43-.42,3-.49,3.26-.93,5-1.28,5a5,5,0,0,1-1.31-1.18c-.58-.65-1.13-1.11-1.22-1a7.06,7.06,0,0,0-.27,1.88,7.55,7.55,0,0,1-.28,1.89c-.4.39-1.4-.55-4.82-4.52-.38-.43-.72-.75-.76-.71a18.91,18.91,0,0,0,.5,2.53c.67,2.93.89,4.41.65,4.41a18.88,18.88,0,0,1-2.19-1.44,21.35,21.35,0,0,0-2.16-1.43c-.39,0-.35.49.15,1.88.78,2.13.92,2.83.58,2.83A51.92,51.92,0,0,1,94,54.15c-1.65-.94-3.06-1.72-3.15-1.72a5.72,5.72,0,0,0,1,1.39,78.8,78.8,0,0,1,5,6.81c.08.25.09.5,0,.57a6.32,6.32,0,0,1-1.76-.26,5.43,5.43,0,0,0-1.8-.22c-.15.16.35.66,1.47,1.47s.61.91-3.93.91c-2.59,0-4.16.07-4,.19s1.38.7,2.82,1.33c3.77,1.63,5.32,2.62,5,3.17a2.37,2.37,0,0,1-1.1.33c-1.61.21-1.87.3-2.09.71-.3.57.39,1.24,1.28,1.24,2,0,1.33,1-1.74,2.57-1.27.64-2.35,1.21-2.4,1.25-.32.28.48.21,2.87-.25A42.38,42.38,0,0,1,96.64,73a8.75,8.75,0,0,1,4,.36c.8.26,1.41.57,1.37.69-.09.29-1,.74-3.11,1.57s-3.86,1-6.88.44a51.47,51.47,0,0,0-11-.82c-3.76.06-3.93.09-5,.63a29.22,29.22,0,0,0-3.74,2.71,47.08,47.08,0,0,1-6.63,5c-.75.32-1,.9-.68,1.52.47.87,1.92,0,7.09-4.13,4.25-3.41,6.72-4.9,8.18-4.9a1.55,1.55,0,0,1,.93.42c.38.38.39.46.11,1-.89,1.71-5.43,5-10.5,7.59-3.65,1.87-4.31,2.3-4.07,2.68s1.55.16,4.41-.54c4.05-1,5.65-2,11.17-7.23,2.57-2.42,3.18-2.89,3.7-2.89.35,0,2.7.15,5.23.33s5.39.29,6.36.24c2.23-.1,2.9-.48,5.48-3.08l1.91-1.93-2.69-.78a17.18,17.18,0,0,1-3.13-1.14c-.44-.36-.44-.36-.08-1.87a21.11,21.11,0,0,1,1.3-3.46,11.4,11.4,0,0,1,3-4c2.36-2.34,3.94-3.46,5.74-4.05,1.08-.35,1.81-.4,5.35-.4,4.66,0,5.69.2,7.74,1.57,3.06,2,6.53,6.75,7.38,10,.4,1.58.25,1.75-3.89,4.35-.74.46-1,.73-1,1.12,0,.8,1.3.81,3.25,0,2.58-1,4.12-1.28,9-1.4a39.07,39.07,0,0,0,4.46-.24,41,41,0,0,0-4.31-1c-2.37-.5-4.3-1-4.3-1A15.3,15.3,0,0,1,134.67,69a9.12,9.12,0,0,0,1.89-1.33c0-.11-.62-.27-1.39-.34a4.74,4.74,0,0,1-1.63-.36c-.35-.35,1.38-1.8,3.94-3.3a18.45,18.45,0,0,0,2.27-1.45,41.52,41.52,0,0,0-4.19.42l-4.19.55L132.44,62c2.59-3,2.59-2.78.07-2.3-2,.38-2.39.39-2.39,0a18.49,18.49,0,0,1,1.7-2.72C134,53.85,134,54,133.37,54.29c-.26.15-1.65,1-3.08,1.87s-2.63,1.6-2.69,1.6a5.81,5.81,0,0,1-.24-1.43c-.13-1.35-.17-1.44-.64-1.44a4.77,4.77,0,0,0-1.53.54,2.44,2.44,0,0,1-1.17.41,9,9,0,0,1,.13-2.13c.15-1.1.32-2.66.38-3.48.09-1.26.06-1.49-.22-1.49s-1.13.95-1.74,2.18c-1,2.08-2.24,2.74-2.68,1.48a6.24,6.24,0,0,1-.23-1.73,2.56,2.56,0,0,0-.18-1.2c-.21-.12-1.23,1-2.27,2.4-.38.54-.76.91-.84.82s-.63-1.81-1.22-3.84c-1-3.34-1.41-4.61-1.43-4.14M143,49.77a1.78,1.78,0,0,0-.41,1.4c0,1.21.41,1.66,1.67,1.82,1.09.14,1.61.39,1.61.78,0,.77,2.17,1.2,3,.6a1.59,1.59,0,0,0,.09-2.14c-.32-.38-.6-.46-1.86-.49-1.58,0-1.87-.21-1.88-1.1A1.45,1.45,0,0,0,144,49.36a1.48,1.48,0,0,0-.92.41m36.27,1.07-1,1.14c-.29.33-.54.44-.82.35-.71-.23-.44.27.59,1.09s2.14,1.37,2.61,1.19c.28-.11.31-.32.2-1.22s-.11-1.1.39-1.32c.69-.32.66-.71-.11-1.36s-1.12-.67-1.85.13m-135,.57c-.54.86,3.76,6.58,6,8,.95.61,1.85.76,1.85.32,0-1-5.78-7.49-7.4-8.36-.23-.13-.41-.12-.49,0M158.14,53c-.6.6.78,2.69,2.6,3.94a3.37,3.37,0,0,0,3.33.54,10.19,10.19,0,0,1,5.4.15,13,13,0,0,0,4.12.46c2.8,0,3.75-.21,4.52-1s.33-1-.92-.71a5.4,5.4,0,0,1-3.5-.47c-.86-.34-1.75-.43-5.54-.56-5.08-.18-5.77-.32-7.7-1.61-1.18-.79-2-1-2.31-.71m27.13,7a26.62,26.62,0,0,0-6.63,3.34c-.86.9-.63,1.36.61,1.19,2-.28,7.25-2.39,8.33-3.36.47-.43.46-1,0-1.28s-.88-.25-2.27.11M40.51,64.69c-1,1-1.3,2.1-1.12,4.18.12,1.4.1,1.61-.19,1.61a15.49,15.49,0,0,1-2.68-2.26c-2.39-2.28-3.18-2.73-3.18-1.79s2.48,3.87,5,5.79c2.83,2.11,3.08,3.35.86,4.27-1.26.52-1.57,1.43-2.12,6.28A38.22,38.22,0,0,1,30.28,101c-.88,1.25-1.76,2.61-2,3-.35.74-.35.79.05,1.6.81,1.65,4.24,5.87,4.77,5.87.34,0,.23-.38-.55-1.88s-.73-1.48-.49-2.29a30.92,30.92,0,0,1,2.18-4.07c3.76-6.23,4.15-7.51,5-16.78.4-4.28.65-5.78,1.07-6.29a3.67,3.67,0,0,1,1.3-.57c2.39-.69,3.74-2.76,4.2-6.41A11.08,11.08,0,0,0,45,67.28c-.69-1.42-2.58-3.36-3.29-3.36a2.68,2.68,0,0,0-1.22.77m131.85.1a21.66,21.66,0,0,0,.41,2.26c.85,3.86,1.55,5.31,2.89,6a11.41,11.41,0,0,0,2.74.48c2.43.18,2.78.37,3.4,1.79a41.14,41.14,0,0,1,1.13,4.21,42.58,42.58,0,0,0,3.38,10c3.44,7.17,8,13,13.17,16.72a11.45,11.45,0,0,0,2.34,1.48,7.09,7.09,0,0,0-.23-1.89,9.11,9.11,0,0,1-.26-1.85,4.1,4.1,0,0,1,.81,1.1c1.91,3.08,6.19,8.25,6.84,8.25s.24-1.08-1.42-4.44a29.77,29.77,0,0,1-2.58-6.13c-.28-1.08-2.1-3.09-4-4.4-1.58-1.11-2.38-1.37-3.05-1-.41.22-.44.34-.31,1.5.07.69.18,1.53.24,1.87.11.6.08.59-.84-.41-5.91-6.35-8.89-13.09-10.24-23.17-.57-4.24-.72-4.44-3.72-5-3.66-.73-4.47-1.23-8.13-5-1.62-1.67-2.61-2.55-2.61-2.33M41.51,67.33c-.8,1,.33,6.22,1.35,6.22.74,0,1.44-3.69.94-4.92C43.52,68,42.5,67,42.06,67a.93.93,0,0,0-.55.34m148,.09a1.9,1.9,0,0,0,1.28,3.06c1.31,0,1.9-1.31,1.21-2.65a1.56,1.56,0,0,0-2.49-.41m-77-.09a5.1,5.1,0,0,0-1.79,1.79,15.14,15.14,0,0,0-.7,2.55c-.39,1.94-.83,2.81-1.34,2.62s-2.26.41-3.36,1.11A3.7,3.7,0,0,0,103.79,77c-.41.9-.43,1.27-.49,10.49l-.07,9.56-2.4.11a18.3,18.3,0,0,0-3.48.45,5.16,5.16,0,0,0-2.81,2.18c-.18.55.57,1.74,2.47,4,1.55,1.82,2.34,3,2.1,3.29a2.88,2.88,0,0,1-.93.23c-.93.13-.89.17-2.29-2-1.17-1.82-1.88-2.42-2.39-2s-.25,1.2.52,2.45a10.58,10.58,0,0,1,1.47,5c.23,2.46.47,3.42,1.1,4.51.54.94,1.28,1.67,1.47,1.47a7.58,7.58,0,0,0-.21-2.09c-.37-2-.33-2.35.26-2.35.75,0,1.66,1.41,1.66,2.56a14.92,14.92,0,0,0,1.64,4.92c.75,1.31,1.78,2.36,2.31,2.36.38,0,.41-.1.31-1.18a12.31,12.31,0,0,0-.75-2.77c-.35-.88-.64-1.64-.64-1.7s.29,0,.65.23a13.13,13.13,0,0,1,3.76,3.82c1.71,2.42,2.53,3.24,3.23,3.24,1.16,0,.91-1.15-.64-2.9a8,8,0,0,1-.85-1.06,8.34,8.34,0,0,1,1.8.51c2.17.75,4.93,1,5.34.53.74-.9-.79-1.78-3.82-2.2-1.5-.21-2.7-.67-2.7-1s1.4-.62,2.62-.62,2.51-.44,2.51-.81c0-.83-2.48-1.78-4.12-1.58a10.72,10.72,0,0,0-2.63.94,8.15,8.15,0,0,1-2.24.84c-.57,0-1.27-.53-1.27-1s.73-.84,1.92-1.18c1.36-.39,2.18-1.09,2.18-1.85s-.57-.82-3.49-.52c-2.46.25-4.17.16-4.42-.23s0-.42,1.67-.61,2.55-.59,2.55-1.1-.32-1-1.51-1.58c-1.36-.68-2.38-1.52-2.38-2a11.58,11.58,0,0,0-2-3.58,18.41,18.41,0,0,1-1.43-2.35c-.3-.72-.3-.79,0-1,.59-.43,3.46-.33,4.8.17a14.87,14.87,0,0,0,1.68.52c1,.21,1.07,0,1.22-10.9.16-11.9.27-12.8,1.71-13.07,2-.39,3.09,2.3,3.32,8.35.13,3.43.35,4.59.56,3,.07-.51.22-3.09.34-5.74.47-10.46.81-12,2.86-12.4,1.23-.27,1.83.55,2.37,3.26a83.86,83.86,0,0,1,.5,8.73c.2,7.56.35,9.85.62,9.85s.41-1,.52-5.44c.18-6.82.57-8.76,1.9-9.31a1.83,1.83,0,0,1,2.43,1c.45,1.07.67,5.78.68,14.75,0,4.31.06,7.84.13,7.84a14.19,14.19,0,0,0,1.59-.8c3-1.61,7.51-2.44,7.51-1.36a5.24,5.24,0,0,1-.75,1.37c-1.83,2.68-2.09,3.12-2.31,4-.63,2.49-.63,2.5-1.46,3-1.17.74-1.54,1.38-1.23,2.14.51,1.22,2.69,1.25,4,.06a2,2,0,0,1,1.59-.55c1.48,0,1.88.45,2,2.38.14,1.68.28,2,.82,2,.69,0,.84-.94.79-4.86-.05-3.28,0-3.78.29-4.09s.36-.3.66.35a16.09,16.09,0,0,1,.62,1.86c.78,2.84,2.17,2.58,2.16-.4a8.19,8.19,0,0,0-1-4.12c-1.16-1.45-1.25-2-1-5.88.17-2.32,0-3.16-.58-3.16s-1,.78-1.14,2.43a6.15,6.15,0,0,1-.42,2,1,1,0,0,1-1.43,0,3.81,3.81,0,0,0-1.21-.67,13.19,13.19,0,0,0-6,0c-1,.32-1.17.27-1.61-.32,0,0-.1-3.92-.18-8.65-.1-5.43-.24-8.89-.39-9.36A4.13,4.13,0,0,0,121.94,75a3.63,3.63,0,0,0-2.28-.4,2.51,2.51,0,0,1-1.41-.11,2.37,2.37,0,0,1-.23-1.2c0-3.31-1.81-5.88-4.26-6a4.4,4.4,0,0,0-1.27.06m49,3.47a10.39,10.39,0,0,0,1.73,2.74c.65.61,1.13.35.73-.39-.52-1-2.46-2.82-2.46-2.35m3.83,1.66a15.11,15.11,0,0,0,.1,4.67.76.76,0,0,0,.81.52c1.5,0,1.62-2.42.22-4.56-.48-.73-.83-.93-1.13-.63m-6.29.18c0,.63,1.71,3,2.17,3s.26-.81-.76-1.93-1.41-1.37-1.41-1m-11.69,3A10.51,10.51,0,0,0,150,79.45c.47.15.26-.68-.48-1.91a13.72,13.72,0,0,0-1.16-1.68c-.45-.48-1-.62-1-.25m6.22.32a16,16,0,0,0,.45,5.16c.43,1.07,1,1.16,1.31.22a6.65,6.65,0,0,0-.74-5.1c-.57-.68-.84-.76-1-.28m4.85.56a7.88,7.88,0,0,0,1.77,2.64,4.73,4.73,0,0,0,2.62,1.19,1.76,1.76,0,0,0,1.36-1.45c0-.81-.86-1.4-2.33-1.63a9.05,9.05,0,0,1-2.2-.62c-.92-.47-1.22-.5-1.22-.13m10.83,1.73a3.31,3.31,0,0,0-.84,2.46c0,1.22.59,2.1,1.4,2.1s1-.54,1-2.13c0-2.18-.77-3.34-1.56-2.43m-113,1.46A10.56,10.56,0,0,0,54,83.94a27.61,27.61,0,0,0-1.09,9c.13,3.37.67,6,1.2,6,.37,0,1-1.87,1.92-5.44,1.58-6.29,2.28-11.7,1.82-14-.18-.87-.69-.82-1.57.16m90.27-.52c0,.76,3,4.11,4.19,4.65s1.75.24,1.76-1c0-.9-.51-1.35-2.11-1.88a11.42,11.42,0,0,1-2.49-1.26c-1.29-.9-1.35-.92-1.35-.53m19.14,2.1c-.32.83,1,3.16,1.77,3.16,1,0,1.08-1.85.09-2.89-.64-.67-1.65-.81-1.86-.27m-9.29.85a6,6,0,0,0,.07,3.23c.51,1.7,1.64.78,1.62-1.32s-1.21-3.6-1.69-1.91m-13.25-.27a15.43,15.43,0,0,0,.64,5c.17.33.45.61.62.61.36,0,.91-1.17.91-1.91A6.22,6.22,0,0,0,144,82.25c-.63-.72-.72-.76-.86-.41m28.55,1.07a16.94,16.94,0,0,0-.13,1.86c0,1.52-.23,1.74-1.63,1.58s-1.59,0-1.24,1.06c.13.4.19.78.12.85a6,6,0,0,1-1.77-.65,5.53,5.53,0,0,0-1.94-.65c-.41.15-.41,1.59,0,2.37a4.72,4.72,0,0,0,1,1.14,1.65,1.65,0,0,0,1.67.44c1.33-.16,2.59-.92,4.41-2.68,2.25-2.17,2.5-2.88,1.54-4.33A6.88,6.88,0,0,0,171.94,82c-.08,0-.2.43-.27,1m-8.78-.1a1.24,1.24,0,0,0-.67.52c-.28.73,1.68,2.73,2.67,2.73s1.15-.84.46-2.07c-.35-.63-1.48-1.48-1.84-1.4l-.62.22m-25.18.43c0,1,1.15,2.22,1.53,1.59.22-.35-.91-2-1.37-2-.09,0-.16.21-.16.46m-92.79.86a3.14,3.14,0,0,0-.27,2l.07,1.48-.86.17c-.61.12-.9.3-1,.61a5.75,5.75,0,0,0,.83,2.87,2.79,2.79,0,0,0,2.15-.13,2.15,2.15,0,0,0,.1-1.42,2.51,2.51,0,0,1,1-2.63A1.93,1.93,0,0,0,47,84.4c-.62-.93-1.6-1.07-2.1-.3m106.36,1.39c-.42.42-.27,1,.52,1.83,1.71,1.9,3.74,2,3.74.14,0-1.29-3.38-2.86-4.26-2M136.07,86c.63,1.65,2.41,3.74,3.55,4.17s2.8,0,2.8-.84c0-.65-1.41-1.94-2.41-2.2l-1.68-.44a4.28,4.28,0,0,1-1.41-.72c-.8-.67-1.11-.66-.85,0m23,.59c-.44.68-.33,3.22.17,3.72s1.33.21,1.74-.65a1.89,1.89,0,0,0,.09-1.69c-.27-1-.93-1.89-1.39-1.89-.15,0-.42.23-.61.51M83.61,89.5c.08,2.29.18,3,.53,3.79.68,1.51,1,1.32,1.9-1,.56-1.5,1.09-.48,2,3.73.27,1.34.53,2.48.57,2.51a13,13,0,0,0,.2-2,10.48,10.48,0,0,0-.6-5.1,29.32,29.32,0,0,0-4.46-4.68,9.68,9.68,0,0,0-.1,2.82m64.27-1.88a14.62,14.62,0,0,0-.13,2.43c0,1.74.07,2.2.37,2.58.8,1,2.09-.32,2.09-2.12A3.16,3.16,0,0,0,149,87.83c-.74-.62-.92-.66-1.09-.21m26.75-.05a6.43,6.43,0,0,0-.41,1.93,8.71,8.71,0,0,1-.32,1.88c-.1.16-.41.2-.91.12-1-.18-1.56.38-1.39,1.45.37,2.27,2.59,1.93,4.37-.66a3.82,3.82,0,0,0,.85-2.29c.1-1.56-.4-2.58-1.3-2.67a1.11,1.11,0,0,0-.89.24m-115,.91c-.12.21-1.09,3-2.16,6.11-2,5.74-2.8,7.94-3.16,8.16-.11.07-.31-.49-.45-1.23-.28-1.48-.42-1.48-.82,0-.15.58-.34.91-.44.8a44.27,44.27,0,0,1-.38-5.49c-.23-6.68-.51-8.29-1.43-8.29-.5,0-1.29,1.33-1.75,3-.57,2-.32,5.64.6,9.07.39,1.49.86,3.73,1,5,.34,2.46.42,7.72.12,8.19s-.59-.87-.83-3.26c-.14-1.38-.28-2.76-.41-4.14a18.6,18.6,0,0,0-.62-3.34c-.4-1.16-1.12-2.36-1.42-2.36s-1,1.84-1.25,3.24c-.54,2.74.11,5.6,2.37,10.47,1.72,3.71,2.36,5.92,2.34,8.1,0,1.13-.07,1.53-.19,1.26s-.7-1.75-1.34-3.39c-2.27-5.81-3.84-8-4.84-6.83-.42.5-.35,3.39.11,4.78a24,24,0,0,0,4.63,7.69,32.43,32.43,0,0,1,4,8.31c1.14,3.43,1.2,3.77.62,3.85s-1.59-1.47-4.41-7.14c-1.32-2.65-2.54-5-2.72-5.22-.59-.75-.77,0-.68,2.76a8.92,8.92,0,0,0,.66,4c1.31,3.25,3.71,6.36,5.8,7.54a10.53,10.53,0,0,1,3.62,3.52c2.56,3.45,4.73,8.11,3.78,8.11-.53,0-1.58-1-4.36-4.36a94,94,0,0,0-6.91-7.7c-.11,0,0,.38.2.92s.92,2.33,1.56,4c2.23,5.65,3.83,8.11,5.89,9a19,19,0,0,0,2.72.79,13.17,13.17,0,0,1,6.34,2.9c.92.71,1.67.8,1.86.22a4.13,4.13,0,0,0-.41-1.75c-.87-2.18-.94-2.52-1.12-6.06a42.88,42.88,0,0,0-2.9-13.71c-1-2.15-1.1-1.65-1.09,4.14,0,5,.25,7.79.83,9.51a3.51,3.51,0,0,1,.23,1.26c-.11.49-1.67-1.18-2.67-2.86-2.27-3.84-2.41-7.87-.44-13.21,3-8.2,3.59-10.58,3.18-13.24-.26-1.65-.78-3.05-1.12-3.05-.14,0-.35.5-.48,1.13a19.15,19.15,0,0,1-1.09,3A61.56,61.56,0,0,0,56.83,133l-1.08,4.2L55.46,136a18.13,18.13,0,0,1-.28-3.28c0-2.39.14-2.83,2.43-8,2.15-4.89,3-7.41,3-8.91s-.25-1.55-1.57-.34a17.21,17.21,0,0,0-4.69,10.1,8.48,8.48,0,0,1-.39,1.85l-.25.61-.28-.51a10.9,10.9,0,0,1-.22-4.74,15.06,15.06,0,0,1,2.29-4.92c2.25-3.32,5.11-11.44,5.11-14.53,0-1.54-.34-1.7-1.32-.61s-2.81,5-4.31,9.5c-1.27,3.86-2,5.46-2.37,5.46s-.46-1.38-.31-2.83c.35-3.52,1.32-6.25,3.72-10.42,2.74-4.79,4.25-9.06,4.5-12.67.18-2.6-.32-4.36-.91-3.24m12.48,1.21a15.6,15.6,0,0,0-4.68.81.77.77,0,0,0-.41.75c.11.76,1.33,1,4.27.89a13.68,13.68,0,0,0,5.08-.88c1-.35,1.19-1,.41-1.28a20.55,20.55,0,0,0-4.67-.29m81.85.1c-.77.78.43,2.19,2.33,2.74,1.33.39,2.21.2,2.31-.48.18-1.23-3.75-3.14-4.64-2.26m7.75.58c-.59,1.11-.4,3.71.32,4.31.45.37,1.22,0,1.65-.85.66-1.28-.18-3.87-1.26-3.87a.85.85,0,0,0-.71.41m-17.1,1.14a1.9,1.9,0,0,0,0,2.09c.67,1,2.81,1.49,3.09.76.2-.51-.33-1.47-1.28-2.35s-1.32-1-1.81-.5m22.75,1.08c-.2.65.43,1.77,1.58,2.81s1.87,1.3,2.39,1,.51-1.49,0-2.25a5.14,5.14,0,0,0-3.07-1.85c-.68-.09-.82,0-.94.32m-16.45.6a14,14,0,0,0-.16,2.23c0,1.28.06,1.55.49,2,1.37,1.46,3.08-.32,2.47-2.57-.27-1-1.56-2.43-2.21-2.43-.33,0-.47.18-.59.77m-10.52.15c-.4.49-.07,1.23.95,2.13s2.14,1.26,2.64.84a2.17,2.17,0,0,0,0-2.21,3,3,0,0,0-.92-.76c-.77-.4-2.33-.4-2.66,0m-62.1,1.08a18.65,18.65,0,0,0-.85,4.76,21.64,21.64,0,0,1-1.22,6.08c-.65,1.48-1.12,1.1-1.45-1.17-.53-3.61-.65-4.21-.93-4.65-.74-1.14-1.31-.1-1.34,2.49,0,2.32-.15,2.67-1,2.75a4.87,4.87,0,0,1-3.31-1.12c-.54-.68-.72-1.39-1.22-4.69a29.82,29.82,0,0,0-.63-3.24c-.2-.54-.73-.92-1-.69s-.51,2.21-.69,6.06c-.2,4.61-.42,5.74-1.43,7.5-.36.63-.56,1.14-.44,1.14a21.87,21.87,0,0,0,2.51-2,34.64,34.64,0,0,1,2.78-2.29c.62-.33,1.62.12,4,1.78,1,.68,1.87,1.31,2,1.4s.81-.34,1.84-1.26c2.43-2.19,2.66-2.25,3.94-1.18,1.61,1.34,2.06.73,1-1.3-1-1.77-1.18-2.94-1.37-6.8s-.62-5-1.22-3.53m78.91.77c1.49,1.5,2.75,2.13,3.47,1.75a.84.84,0,0,0,.43-.79c0-1.39-1.48-2.3-3.73-2.3h-1.49l1.32,1.34m19.38-.76c-2.32,1.28-5,3.46-5,4.06,0,.39.45.45,1.14.16,1.18-.49,2.56.25,3.21,1.72a3.69,3.69,0,0,1,.27,2.27,78.11,78.11,0,0,1-1.86,10c-.9,3.68-1.35,5.08-1.71,5.3s-.62-1.59-.93-5.36a16.83,16.83,0,0,0-.7-4.44c-.44-1-1-1.44-1.57-1.23-.87.33-1.7,3.5-1.45,5.5.14,1.17.46,1.61,1.06,1.51s.79,1,1.1,3.67c1.16,10.13,4.71,23.7,5.9,22.52a47.83,47.83,0,0,0,.28-5.1A32.17,32.17,0,0,1,178,123.79c1.43-4.87,1.76-6.06,2.25-8.31a35.22,35.22,0,0,0,.8-9.67,27.65,27.65,0,0,0-.21-2.87s-.4,1.77-.8,3.85c-1.36,7-4.92,19.47-5.48,19.12s.15-6.35,1.39-12.48c1.31-6.46,1.4-7.24,1.42-12.3,0-4.47,0-4.77.49-5.7s.47-1.58,0-1.57a4.87,4.87,0,0,0-1.29.57m-11.93-.21a3.13,3.13,0,0,0-.68,2.3,5.31,5.31,0,0,1-.21,1.55c-.2.53-.25.55-1.18.39a15.47,15.47,0,0,0-1.89-.18c-.81,0-.93,0-1,.44a1.44,1.44,0,0,0,.55,1.08,1.8,1.8,0,0,0,1.66.61,4.41,4.41,0,0,0,3.3-1.36,3.66,3.66,0,0,0,1.43-2.84c0-1.51-1.07-2.58-2-2m-143,1.68a1.68,1.68,0,0,0-.41,1,5.18,5.18,0,0,1-1,2.68c-1.31,1.92.89,4.49,2.26,2.64.36-.48.38-.65.18-1.47-.29-1.13-.14-1.57.52-1.57s1.29-.36,1.29-1a5.31,5.31,0,0,0-.88-2.55,2,2,0,0,0-2,.25m126.29.67s-.12.47-.26,1c-.22.88-.27.92-1,.9-.4,0-1.24-.1-1.87-.18-.8-.11-1.2-.08-1.3.08a7.43,7.43,0,0,0,1,3.15,5,5,0,0,0,2.68-.08,1.36,1.36,0,0,0,.65-.67c.17-.54.45-.73,1.12-.73,1.09,0,1.54-1.24.9-2.47a1.68,1.68,0,0,0-1.52-1,1.05,1.05,0,0,0-.44,0m6,2.64a4.92,4.92,0,0,0-.22,1.29c0,1.4-.15,1.57-1.31,1.51s-1,0-1.12.54a3.4,3.4,0,0,0,.71,2.57c.89,1,1.92.69,1.92-.67,0-.49.52-1.13.74-.9s1.4-.39,2-1.14a2.14,2.14,0,0,0-.73-3.43c-1-.62-1.66-.55-1.94.23m-68.64,0a1.62,1.62,0,0,0-.89,1.62c0,.93.31.93,1,0l.67-.84.27.48c.86,1.56-.4,4.41-1.76,4-.33-.11-.47,0-.63.4-.27.72-.27,7.28,0,7.28.12,0,.21,0,.21-.1,0-.26.64-4.14.74-4.46.18-.59.43-.42,1,.71a4.2,4.2,0,0,1,.24,3.51c-.36,1-.88,1.57-1.47,1.57s-1.15.55-1.06,1c.12.64,1.55.89,5.64,1a25.84,25.84,0,0,0,3.95,0,28.64,28.64,0,0,0-1.84-2.62,10.22,10.22,0,0,1-1.85-3c0-.33.39-.93,1.13-1.73,1.55-1.67,1.52-1.87-.53-4.49-1.75-2.24-2.36-3.21-2.13-3.43.07-.08.39.17.71.55.68.8,1.12.76,1.82-.19.87-1.18.64-1.31-2.23-1.36a16,16,0,0,0-3,.14m42.1-.06a1.47,1.47,0,0,0,.17,1.5,1.06,1.06,0,0,0,.82.12,1,1,0,0,0,.52-1.46,1.46,1.46,0,0,0-1.51-.16m5.14,1.45c-2.69,4.21-2.79,4.55-1.29,4.27a5.31,5.31,0,0,0,3-2.49c.87-1.59.69-3.17-.37-3.17-.4,0-.69.29-1.38,1.39m31.62,1.63a16,16,0,0,0-2.19,1.85c-.06.19.32.26,1.46.26,1.34,0,1.62.07,2.12.5s.57.55.55,2.4c0,3.67-2.4,12.75-3.26,12.53-.11,0-.18-.5-.16-1s.07-2.54.1-4.46c.05-3.18,0-3.59-.4-4.71-.62-1.67-1.52-2.45-2.27-2-.23.14-.24.39-.06,1.27.39,2,.65,6.5.78,13.93l.13,7.29-1.11.57c-1.36.68-6.23,4.56-6.23,5a36.11,36.11,0,0,0,2.92,3.86c1.6,2,2.92,3.64,2.92,3.7a6.65,6.65,0,0,1-1.79.12c-3.1,0-3.23.17-1.83,2.26s1.44,2.68.07,3c-2.45.52-.44.7,9.72.84l9.35.13.24,1.86a12.25,12.25,0,0,0,.35,1.95c.22.22.29-.24.34-2.09.06-2.67.05-2.68-3-2.78-1.88-.06-2.35-.13-2.35-.37a10.11,10.11,0,0,1,1.05-2,6.59,6.59,0,0,0,1-2.08c-.1-.49-.75-.65-2.77-.67a5.25,5.25,0,0,1-1.8-.2c-.06-.1.08-.42.3-.7.56-.71.51-1.51-.16-2.65-.48-.82-3.34-4.36-5.84-7.22l-.7-.81,2.15-3.86a23.65,23.65,0,0,1,2.3-3.71,17.17,17.17,0,0,1,.73,1.6c.58,1.4,2.17,3.38,2.72,3.38s.52-.63.25-1.62a22.52,22.52,0,0,1-.44-2.83c-.26-2.69-1-4.16-2-4.16-.31,0-.86.45-1.7,1.38-.68.76-1.29,1.32-1.37,1.24a19,19,0,0,1,.8-3.48,57.74,57.74,0,0,0,2-13.07c.25-4.27.13-5.8-.47-5.92a9.48,9.48,0,0,0-2.44,1.54m-64.16-1a1.36,1.36,0,0,0,1.29,2.06c1.24,0,1.52-.78.64-1.83-.63-.74-1.59-.86-1.93-.23m46.39,2c-.35.15-.32,1.2,0,1.91a6.37,6.37,0,0,0,2.52,2.19c1,.27,2.31-.51,2.31-1.42s-2.12-2.41-3.9-2.68a2.54,2.54,0,0,0-1,0m41.23.6a1.08,1.08,0,0,0-.4,1.18,3,3,0,0,0,1.43,2,.8.8,0,0,0,1.08,0,3.6,3.6,0,0,0,1-.87c.42-.57.42-.57,0-1.32a2.78,2.78,0,0,0-2.1-1.49,1.71,1.71,0,0,0-1,.52M86.87,104c-1,1.24-.39,3.8,1,4.37.78.33,1.24.16,1.8-.67a2.57,2.57,0,0,0,0-3c-1-1.3-2.05-1.57-2.75-.68m66.88,2.8a35,35,0,0,0-3.12,2,5.4,5.4,0,0,0,1.63.26c1.88.16,2.62.39,2.81.88a9.44,9.44,0,0,1-.33,2.39c-.5,2.24-3.06,10.29-3.22,10.13s-.23-1.32-.41-2.83c-.56-4.87-1.45-7.56-3.2-9.7l-.92-1.13s-.11,0-.16,0a4.6,4.6,0,0,0,.19,1.42c.17.72.55,3.2.83,5.51,1.63,13,2.06,15.57,3.07,17.77.89,1.95,1.58,1.2,3-3.31,1.79-5.63,2.39-6.09,3.28-2.54.82,3.23,1.52,3.74,1.88,1.34.26-1.7-.65-6.87-1.33-7.55s-2,.14-3.18,2.43c-.84,1.67-1.52,2.43-2,2.25-.28-.11-.29-.19,0-.7,1.41-2.72,5.16-19.71,4.5-20.37a15.22,15.22,0,0,0-3.29,1.72M131,109.15c-1.26,1.28-1.74,1.55-2.52,1.39a4.94,4.94,0,0,0-1.8.22,25.11,25.11,0,0,0-5,2.25,12.31,12.31,0,0,0,1.92.32c1.9.24,2.78.53,2.92,1s-.73.64-2.67.86a7.8,7.8,0,0,0-4.71,2c-1.18,1-1.5,1.56-.82,1.54a24.28,24.28,0,0,0,2.67-.68,12.16,12.16,0,0,1,2.16-.54c-.09.08-1.18.92-2.42,1.86-2.77,2.12-5.4,4.6-5.56,5.25s.28,1.16,1.09,1c1-.16,2.54-1.27,5.16-3.71,2.2-2,2.87-2.52,2.63-1.89a32.4,32.4,0,0,0-1.17,4c0,.51.32.69,1,.53s1.22-1.41,1.6-4,.9-3.82,2.2-5.08l1-1-.13,1c-.35,2.77-.37,3.34-.14,3.76a.79.79,0,0,0,.56.45c.57,0,1.49-1.24,1.9-2.55a34.89,34.89,0,0,0,1.21-7.75l-.06-1.29-1,1.05m-53.43,1.36A4.2,4.2,0,0,0,76,113.77c0,1.33.33,1.43.83.24,1-2.42,1.25-2.65,2.6-2.54.8.06.85-.23.17-.92s-1.09-.63-2,0m-9.53,1.07c-.47.48-.5.62-.5,2.94,0,2.7.17,4.35.44,4.35a3.78,3.78,0,0,0,.19-1.59c0-2.49.3-4.53.71-5a2.3,2.3,0,0,1,3,.44c.29.54.57.32.44-.35s-1.14-1.31-2.56-1.31c-1,0-1.28.08-1.7.5m19.23,0c-.46.58-1,2.31-.78,2.52a5.83,5.83,0,0,0,1.67.14c2.44,0,2.75-.72,1-2.33-1.06-1-1.36-1-1.9-.33m50.68.5a6.36,6.36,0,0,0-2.54,5.21c0,1.79.43,3.09,2.07,6.26,2.25,4.36,2,4.39-2.3.32a10.1,10.1,0,0,0-3.93-2.63c-.44-.1-.68,0-1.1.41s-.53.63-.44,1.9a6.24,6.24,0,0,0,2.11,4.31A8.6,8.6,0,0,0,137,130c2.46.35,3.34.74,3.34,1.47,0,1.11,1.84,3.78,2.6,3.78a2.42,2.42,0,0,0,.95-.49,12.58,12.58,0,0,1,1.51-.92c2-1,2-2.62.14-4.83-.79-.93-.85-1.35-.28-2.26a11.38,11.38,0,0,0,1-5.14c0-2-.22-2.62-1.14-2.85-1.23-.31-1.81.76-2.76,5.11-.49,2.26-.89,3.38-1.19,3.38-.57,0-.83-2.69-.43-4.51.33-1.47.64-2.07,1.17-2.27s.55-.4-.06-2a4.56,4.56,0,0,1-.22-2.21c.09-1.06,0-1.35-.24-1.59-1.12-1-1.27-1.16-1.27-1.71a1.26,1.26,0,0,0-1.15-1.26,2.73,2.73,0,0,0-1,.39m53.75.21c-.18.3,1.48,1.53,3.29,2.44,3.83,1.91,9.45,3.93,10.95,3.93.72,0,.82-.06.82-.47,0-.57-1-1.58-2.15-2.15a86.18,86.18,0,0,0-9.47-3.11c-3.32-.92-3.27-.91-3.44-.64M83.08,117.35a21.89,21.89,0,0,0,.06,5.09c.33.2.43-.49.43-2.86,0-2.15-.19-3-.49-2.23m-7.16,1.48c0,.64.13,2.92.2,5.06.16,4.32.3,4.14.67-.87.29-4.08.39-4.22,3.27-4.67,1.43-.23.72-.45-1.83-.57l-2.37-.12.06,1.17m-56.58,0a.53.53,0,0,0-.15.31c0,.28,1.69,1.15,2.92,1.49a33.19,33.19,0,0,0,6.21.94c2.13,0,2-.85-.2-1.58-2-.67-8.43-1.52-8.78-1.16m75.2.83c-2.25.51-3.83,1.51-4.42,2.8-.32.72-.39,1.35-.39,3.89,0,3.26.26,3.87.5,1.16.27-3.12,1-5,2.17-5.63.8-.42,1.2-.39,2.48.2a11.75,11.75,0,0,0,2.51.72c1.41.22,4,.08,3.68-.21a10.23,10.23,0,0,0-1.9-.5c-2-.4-3.17-.83-3-1.13a3.5,3.5,0,0,1,.94-.62c.44-.23.81-.51.81-.62a9.72,9.72,0,0,0-3.39-.06M79,121.48a2.4,2.4,0,0,0-.47,2.11c.17,1,.42,1,.8.12a6.92,6.92,0,0,1,1-1.51c.41-.45.68-.87.6-.94a2.15,2.15,0,0,0-2,.22m115.81,3.18c.56,2.63.36,3.71-1.05,5.67a3.53,3.53,0,0,0-.1,3.47c.37.81,5,5.78,5.35,5.78a7.58,7.58,0,0,0-.55-2.11c-.92-2.72-.94-3.53-.11-4.79a4.55,4.55,0,0,0,0-4.7c-.54-1.14-3.33-4.6-3.71-4.6-.09,0,0,.58.12,1.28M93.2,126c-.32.83-.17,2.83.22,2.83s1.13-2.1,1-2.83-.89-.75-1.17,0m92,0c-.65.65-.63,1.31.05,2.54l.56,1-.66.9a4,4,0,0,0-.66,1.14,2.25,2.25,0,0,0,.54.88,1.4,1.4,0,0,0,1.19.64c1.24,0,1.68-1,1.31-3-.25-1.39-.07-1.91.68-1.91s.05-1.51-1.17-2.26c-.85-.53-1.23-.51-1.84.1m-84.23,0a5.18,5.18,0,0,0,0,2.5c.42.65.87-1.4.51-2.32-.13-.34-.33-.41-.56-.18m-22.16.66a1.52,1.52,0,0,0,.13,1.94c.48.3,1.39-.56,1.39-1.3,0-1-.86-1.37-1.52-.64m5.15,0c-.54.59-.42,2.29.16,2.29.34,0,1-1.46.9-2.07s-.61-.72-1.06-.22m-17.65.22c-1.52,1.68-.41,5.36,3.38,11.23a38.79,38.79,0,0,1,4,7.58,8.36,8.36,0,0,1,.21,3.5c-.42.42-1.27-1.26-2-4-1-3.6-3.58-8-4.47-7.74-.59.19-.8,1.06-.73,3a6.89,6.89,0,0,0,1.12,4,21.75,21.75,0,0,0,4.56,6.27l1.49,1.48-.36.57a17.83,17.83,0,0,1-1.78,1.95C70.09,156.12,69,158,69,159.26s-.63,2-2,2.48c-.69.25-1.22.55-1.17.68a2.23,2.23,0,0,0,1.08.48c2.42.63,3.79-.36,5.52-4a19.27,19.27,0,0,1,1.22-2.32,6.48,6.48,0,0,1,.52,1.43c.43,1.43.83,1.81,1.13,1.08a11.14,11.14,0,0,0,.71-3.27c.24-2.22,1-3.83,3.78-7.94,2.46-3.64,3.35-5.3,4.14-7.65.94-2.78.69-5-.56-5-.57,0-1.9,1.31-2.83,2.78a18.4,18.4,0,0,0-2.89,8.39c-.22,2.32-.64,3.78-1.24,4.32-1.45,1.32-1.46-3.19,0-7.6.22-.67.74-2.15,1.16-3.28,1.41-3.77,1.19-7-.65-9.68a3.62,3.62,0,0,0-2.66-1.9,1.19,1.19,0,0,0-1.28.75c-.41.79-.26,2,.8,6.15,1.11,4.35,1.51,7.17,1,7s-1.21-1.9-2-5.11c-1.19-4.74-2.83-8.18-4.74-9.9-.93-.85-1.22-.91-1.72-.36m-48.91,1.23c-.27.18-.27.27,0,.76.65,1.24,2,1.69,5.87,1.92,2.42.16,2.89.25,3.92.76,1.34.67,1.74,1.27,1.43,2.15s-.09,2.15.72,4.07a23.64,23.64,0,0,1,1.85,6.69c.06,1.43.32,1.91,2.37,4.34,2.76,3.29,2.76,4.56,0,4.82-2.22.21-3.11,1.13-3.09,3.18S32.91,163,34.22,163c.7,0,1.07-.4,1.47-1.62.68-2,1.2-1.88,2.36.7,1,2.16,1.36,2.59,2.63,2.95a5.62,5.62,0,0,1,2.84,2.34c.25.49.27.7.07,1.07a.82.82,0,0,0,0,.89c.51.95,2.59,3.23,7.19,7.92,6.59,6.7,7.63,8.1,10.05,13.53l1.37,3.08,2.85.06c3.29.08,4.81-.06,5.35-.48.37-.29.36-.31-.11-.71s-.69-.48-2.15-.72c-1.18-.19-2.36-1.51-4.92-5.53-4.1-6.42-6-8.6-11.22-13-3.14-2.61-4.86-4.32-5.36-5.3a6.32,6.32,0,0,1-.45-1.59c-.18-1.23-1-2.15-2.84-3.36-1.5-1-2.2-1.86-2.2-2.83a6.58,6.58,0,0,0-.22-1.41c-.2-.73-.43-1-1.67-2.07-.36-.32-.39-.51-.26-2,.17-2,0-2.6-1.74-5.13-1.33-2-1.65-2.72-1.65-3.91s-.19-1.52-1.35-2.82a7,7,0,0,1-1.72-4c0-1.15-.39-2.33-.81-2.44s-.83-.91-.83-1.86a9.88,9.88,0,0,0-.92-4.18c-.65-1-2.2-1.72-4.42-2.1s-7.78-.63-8.18-.35m91.54,1.56a36.34,36.34,0,0,0-20.58,10.24,38.37,38.37,0,0,0-8.24,11.29,37.68,37.68,0,0,0-2.23,27.72,37.22,37.22,0,0,0,11.73,18.24A36.66,36.66,0,0,0,110,206.23a56,56,0,0,0,12.63-.42,33.43,33.43,0,0,0,17.66-9.33,40.71,40.71,0,0,0,2.93-3.13l.46-.67h-.58a18.6,18.6,0,0,0-3.55,1.46,34.61,34.61,0,0,1-8,3.13,27.7,27.7,0,0,1-12.32.33c-11.46-2.18-20.44-11.11-23.28-23.17a36.56,36.56,0,0,1-.5-10.48,30.58,30.58,0,0,1,8.72-17.72,28.45,28.45,0,0,1,27.38-7.75,33.72,33.72,0,0,1,8,3.13,18.29,18.29,0,0,0,3.55,1.45h.58l-.46-.66a42.17,42.17,0,0,0-2.93-3.14,33.56,33.56,0,0,0-17.66-9.33,60.25,60.25,0,0,0-13.73-.3m-22.81.93c-.51.21-.61.65-.21,1a10.69,10.69,0,0,0,2.72.29,7.63,7.63,0,0,1,3.73.66,4.35,4.35,0,0,0,1.49.5c.47-.15-1-1.57-2-1.89-2-.65-4.8-.91-5.74-.53m118,.18a35.69,35.69,0,0,0-.43,6.5c.24,1.92,1,2.11,2.34.59a1.55,1.55,0,0,0,.13-2.35c-.61-.83-.64-1.22-.14-1.87a3.33,3.33,0,0,0,.5-1,2,2,0,0,0-.68-1.88c-.47-.26-1.57-.27-1.72,0m-123.91,1.1c.09.27,2.56.46,3.39.26,1-.25.15-.52-1.63-.52-1.38,0-1.82.06-1.76.26m31.11-.05a37.78,37.78,0,0,0-12.4,3.7,31.48,31.48,0,0,0-9.33,6.75,33.79,33.79,0,0,0-10.1,19.17,51.38,51.38,0,0,0-.09,13.33c2.28,11.56,9.12,20.41,19.86,25.69a37.85,37.85,0,0,0,22.52,3.22c3.55-.58,7.44-1.93,8.18-2.84.4-.48.29-.51-1-.33a34,34,0,0,1-12.13-.94,32.11,32.11,0,0,1-12.24-6.16c-5.28-4.24-9.36-11.28-10.91-18.84a49.61,49.61,0,0,1-.41-11.49,30.69,30.69,0,0,1,5.93-14.76,48.21,48.21,0,0,1,9.63-8.78c4.77-3.19,14-5.14,20.13-4.25,1.29.19,1.4.15,1-.33-.74-.9-4.6-2.24-8.18-2.84a56.69,56.69,0,0,0-10.46-.3m47,1.73c-1,1.06-1.08,1.66-.35,2,1,.46,1.94-.78,1.72-2.3-.11-.76-.46-.68-1.37.31m2.63,1.25a3.28,3.28,0,0,0,1.07,3.78c1.38.85,3.86,1.4,3.85.85,0-.88-3.63-5.15-4.36-5.15-.2,0-.45.23-.56.52m29.23,3.73a29.79,29.79,0,0,0-.68,4.28,6.78,6.78,0,0,0,1.47,5.15,61.79,61.79,0,0,0,5.61,6.12,22.8,22.8,0,0,0-1.23-2.92,42.1,42.1,0,0,1-3.75-11.91,21,21,0,0,0-.71-3.13,13.31,13.31,0,0,0-.71,2.41m-33.48-1.62c-.39.24.65,1.59,3.25,4.2,1.42,1.43,2.33,2.2,2.56,2.15,1.18-.23.57-2-.93-2.76-1.14-.55-1.86-1.36-1.86-2.11a2.15,2.15,0,0,0-.42-1.11c-.35-.45-.59-.54-1.38-.54a3.38,3.38,0,0,0-1.22.17m-133.88,2a4.31,4.31,0,0,0-.89,1c-.43.7-.43.75-.09,1.13a1.17,1.17,0,0,0,.63.4c.14,0,.44.24.67.53.36.45.4.72.3,1.79s-.06,1.32.3,1.65a2.55,2.55,0,0,0,2.6.26c.75-.5.68-1.33-.2-2.38a2.35,2.35,0,0,1-.72-2,2,2,0,0,0-.79-1.93c-.88-.88-1.15-.95-1.81-.49m141.74,2.47c-.42.42-.42,1.3,0,1.46a2.34,2.34,0,0,0,1.86-.86c.3-.78-1.19-1.26-1.86-.6M19,141.78c-.92.86-1,1.33-.22,2.19s1.57,1,2.43,0a2.63,2.63,0,0,0,.64-1c0-.47-1.33-1.71-1.82-1.71a2,2,0,0,0-1,.56m165.82,1.64a22.09,22.09,0,0,0-2.5,3.48c-.53,1-.41,3,.47,7.49.8,4.08,1.22,7.1,1.08,7.77-.08.45-1.08.85-1.7.69-.93-.24-1.27-.71-2-2.81-.82-2.32-1.13-2.58-1.7-1.39-.49,1-.75,2.87-.9,6.66a20.46,20.46,0,0,1-.41,3.94c-.2.5-.59.82-1.68,1.37-3.06,1.54-3.36,3.31-.76,4.54,1.56.74,1.66,1.15,1.35,5.5-.24,3.24-.18,4.44.2,4.44a5.25,5.25,0,0,0,1.14-.73c.57-.44,1-.66,1.14-.54s-.21,1.45-1.34,4a19.77,19.77,0,0,0-1.05,3.22c-.34,1.69-.43,4.88-.14,4.88a5.41,5.41,0,0,0,.84-1.59,44.23,44.23,0,0,1,3.65-6.75c1.77-2.81,2.31-4.53,2.29-7.3,0-2.31-.3-3.48-.88-3.6s-1.24.63-1.83,1.67-1,.93-1.25-.42a54.34,54.34,0,0,1,.72-9.49c.29-1.4.5-1.51,1.8-.91s2.28.65,3.08,0c.62-.52.89-1.21,1.66-4.23a2.09,2.09,0,0,1,2.21-1.85c1.92-.18,2.91-1.36,2.91-3.47a8.84,8.84,0,0,0-1.35-4.47,3.56,3.56,0,0,0-3.23-.93c-.93.12-1.12.08-1.47-.32s-.41-.73-.4-2.63a9.56,9.56,0,0,1,.67-4.08,14.42,14.42,0,0,0,.66-2.31c0-.59-.65-.51-1.27.16m-28.15,1.33a16,16,0,0,0,.78,1.7c.92,1.75,1.15,1.83,5.51,1.91s5.59-.13,6.37-1c.57-.59,1.49-2.46,1.3-2.65a86.42,86.42,0,0,0-10-.46h-4.06l.14.46m-18.11,4.41c-.66.88-2.19,3-3.4,4.69-2.47,3.47-3.75,4.92-4.54,5.12a20.56,20.56,0,0,1-4.78-1c-5-1.36-7.19-1.86-7.35-1.69s.4,1.37,2.12,3.87c4.8,7,4.87,7.08,4.59,7.69-.14.31-1.34,2.18-2.66,4.15-2.56,3.82-3.38,5.15-3.6,5.9-.12.4-.06.46.44.46.69,0,3-.62,7.1-1.92,4.83-1.52,4.53-1.5,5.66-.37.53.53,2.17,2.57,3.65,4.54,3,4,3.68,4.76,3.94,4.33s.44-3.77.22-8.5c-.13-2.69-.2-4.91-.17-4.94l4.27-1.46c4.17-1.41,7.39-2.82,7.54-3.32s-3.37-1.81-10.08-3.85l-1.82-.55.13-2c.29-4.49.4-12.75.17-12.75a7.44,7.44,0,0,0-1.43,1.59m21.21,4.15c-.87,1-.94,2.89-.21,5.54.33,1.17.77,1.85,1.21,1.85.28,0,.51.44.51,1s1,1.88,2.25,2.78l1.2.89-1.28.11a11,11,0,0,0-5.09,2c-2.49,1.62-3.38,2.88-3.77,5.3-.17,1.07.13,1.49,1.05,1.49s1.33-.19,1.55-.75.93-.89,2-.89c1.84,0,5-2.23,9.47-6.6,3.44-3.38,3.78-4.05,3.75-7.34,0-2.88-.35-4.52-1-5.34s-1.55-.83-2.45.12-1.49,2.88-1.75,6.55c-.33,4.57-.54,4.61-1.58.34-.77-3.11-1.64-4.92-3.11-6.44s-1.93-1.51-2.73-.57m-24.52,4.51c-1.78,2.57-3.26,4.11-4,4.11a14.63,14.63,0,0,1-2-.4,41,41,0,0,0-5.27-1,19.1,19.1,0,0,0,1.48,2.12c1.61,2.13,2.52,3.77,2.53,4.55s-.71,2.21-2.5,4.61a29.27,29.27,0,0,0-1.71,2.42c.06,0,1-.27,2.2-.6,4.32-1.23,5.74-1.29,7.15-.32a19.41,19.41,0,0,1,2.46,2.8l1.73,2.29.1-3.89c.12-4.37.2-4.67,1.57-5.25.43-.19,1.78-.72,3-1.19A12.45,12.45,0,0,0,144.4,167c.22-.36-.45-.71-2.84-1.51s-3.3-1.38-3.65-2.44a37,37,0,0,1-.58-4.21l-.34-3.51-1.73,2.48m-87.91-1.71a2.9,2.9,0,0,0,.13,3c1.14,1.22,2.68.13,2.35-1.66-.15-.77-1.2-1.92-1.76-1.92a1.12,1.12,0,0,0-.72.54m108.72,5.68c-.6.6-.64.91-.24,1.83a3.25,3.25,0,0,0,3.21,2.07c.63-.13,1.42-.93,1.42-1.44,0-1-1.8-2.65-3.16-2.87a1.13,1.13,0,0,0-1.23.41M57.66,168.5a1.28,1.28,0,0,0-.54,1A1.72,1.72,0,0,0,58.56,171c.47,0,.91.53,1.4,1.67.43,1,1.09,1.61,1.74,1.61a2.72,2.72,0,0,0,2-1.17c.28-.74-.09-1.24-1.34-1.79a2.71,2.71,0,0,1-1.82-2.18c-.24-1-1.92-1.34-2.88-.59m110.27,6.73a2.79,2.79,0,0,0-.91,1.05c-.26.63-.24.7.22,1.07,1,.79,2.86.06,2.86-1.1,0-.45-.87-1.41-1.27-1.41a2.74,2.74,0,0,0-.9.39M38.7,176.87c-.21.13-.08.32.51.77,1.08.8,1.32,1.13,1.21,1.63s.32,1,1.35,1.4,1.25.78,1.09,1.43c-.11.43-.06.54.25.56,1.92.11,2.86-.81,2-2a4.63,4.63,0,0,0-1.22-1c-1-.61-1.34-1.05-1.34-2,0-.49-.12-.68-.53-.83a7.68,7.68,0,0,0-3.34,0m124.57,4.26a2.84,2.84,0,0,0-.14,1.11c0,1.3,1.39,4.07,4.1,8.15,2,3,2.81,3.91,3.3,3.62.8-.5-.81-4.43-3.66-9-2.08-3.31-3.1-4.42-3.6-3.92M51.63,191.57a1.11,1.11,0,0,0-.45,1c0,.8.2,1,1.43,1.42a3.26,3.26,0,0,1,1.34.85c1.81,2.36,2.71,2.91,3.69,2.26s.43-2.36-1.23-3.09c-1.11-.49-1.75-1.14-1.75-1.77s-.81-1-1.74-1a2.64,2.64,0,0,0-1.29.32"/></g></g></svg>