<svg xmlns="http://www.w3.org/2000/svg" viewBox="0 0 259.72 251.02"><defs><style>.cls-1{fill:#b46529;fill-rule:evenodd;}</style></defs><g id="Layer_2" data-name="Layer 2"><g id="Layer_2-2" data-name="Layer 2"><path class="cls-1" d="M121.59.16a130.61,130.61,0,0,0-16.93,2.29c-21.27,4.33-36.83,11.06-53.28,23a122.78,122.78,0,0,0-24.19,23A121.44,121.44,0,0,0,5.63,88.78,166,166,0,0,0,1,109.46a87,87,0,0,0-1,16,87,87,0,0,0,1,16,165.9,165.9,0,0,0,4.64,20.67c4.67,15.46,13.15,30.58,24.74,44.09a131.76,131.76,0,0,0,40.41,31,121,121,0,0,0,26.1,9.42c12.81,3.16,21.3,4.25,33,4.25s20.17-1.09,33-4.25a120.72,120.72,0,0,0,26.09-9.42,133.72,133.72,0,0,0,35.37-25.56,128.91,128.91,0,0,0,25.57-38,137.07,137.07,0,0,0,9.56-38,99.23,99.23,0,0,0,.29-10.31,87.91,87.91,0,0,0-1-16,166.12,166.12,0,0,0-4.65-20.68c-4.66-15.46-13.14-30.57-24.73-44.08a132.22,132.22,0,0,0-45-33.21,121.84,121.84,0,0,0-21.55-7.26A133.25,133.25,0,0,0,137.63.14c-3-.2-12.95-.18-16,0m4.83,8.75c-38.23,1.22-72.88,19-95,48.79A113.63,113.63,0,0,0,9.5,113.14a117.3,117.3,0,0,0,0,24.71c5.28,48,41,88.1,89.4,100.4a121.75,121.75,0,0,0,31,3.81,121.62,121.62,0,0,0,30.95-3.81c46.74-11.87,82-49.92,88.83-95.9a116.67,116.67,0,0,0,.58-29.21,114.26,114.26,0,0,0-28.8-63.91c-1.91-2.12-7.17-7.39-9.16-9.17A123,123,0,0,0,143.61,9.64a148.64,148.64,0,0,0-17.19-.73m-3.44,10-3,.24c-28.6,2.2-56,15.16-75.1,35.46a104,104,0,0,0-28.28,62.23c-.29,3-.29,14.53,0,17.52A103.7,103.7,0,0,0,37,187.18c19.82,26.37,50.79,42.75,85.13,45,3.17.21,11.9.21,15.06,0a117.32,117.32,0,0,0,67.59-26.58c20.7-17.28,33.88-40.8,37.38-66.7a78.1,78.1,0,0,0,.75-13.34,78,78,0,0,0-.75-13.34c-6.25-46.12-43-82.94-91.39-91.63a100,100,0,0,0-20-1.73c-3.87,0-7.37,0-7.78,0m1.68,2.7A115,115,0,0,0,75.28,34.87,108.88,108.88,0,0,0,32.49,75.66a135.6,135.6,0,0,0-6.36,12.93,96.08,96.08,0,0,0-7.1,37,95.45,95.45,0,0,0,5.28,32.1,109.12,109.12,0,0,0,8.08,17.65,110.14,110.14,0,0,0,65.14,49.92,119,119,0,0,0,54.18,2.36A111.23,111.23,0,0,0,220,185.53a102.27,102.27,0,0,0,14.87-27.85,95.49,95.49,0,0,0,5.29-32.1,95.49,95.49,0,0,0-5.29-32.1,107.43,107.43,0,0,0-8.08-17.65,110.14,110.14,0,0,0-64-49.59A115.11,115.11,0,0,0,134,21.58a77.84,77.84,0,0,0-9.29,0m.31,19c-.31.19-.19,1,.82,5.62,1.38,6.31,1.57,8,1,8.77-.23.33-.37.37-.91.3-1.2-.16-1.51-.72-1.24-2.3.17-1,.16-1.11-.12-1.41a4.54,4.54,0,0,0-2.53-.82c-1.59,0-3.57.91-3.94,1.82s0,1.29,2,2.1c.28.11.42.24.33.33-.41.4-16.26,3.77-17.72,3.77-.6,0-1.95-.91-3.87-2.58-2.43-2.13-3.35-2.71-3.35-2.09,0,.28.29.76,1.33,2.22a6.09,6.09,0,0,1,1.29,3.07,4.2,4.2,0,0,1-1.61,2.7c-1.29,1-2,1-2.41.1-.35-.69-.56-.45-.56.64A2.54,2.54,0,0,0,94,64.47a2.63,2.63,0,0,0,2,1.29,3.62,3.62,0,0,0,2-1.09,6.19,6.19,0,0,0,1.76-4.27L99.83,59l1.68,1.23a9.51,9.51,0,0,0,2,1.24c.16,0,2.5-.48,5.19-1.07,7.09-1.54,10.56-2.5,12.1-3.33.87-.46,1.4-.44,3,.14,2.06.72,3.26.6,4.06-.41.31-.39.35-.66.35-2a69.5,69.5,0,0,0-1.74-13.16c-.33-1-1-1.47-1.51-1.11m6.9.6c-.33.87.55,12.59,1.13,14.92.2.83.39.88.52.15a113.34,113.34,0,0,0-.81-13.29c-.34-1.92-.58-2.43-.84-1.78m-13.14.28a54.24,54.24,0,0,0-9.41,5.67c-2.82,2.12-3.07,3-.48,1.58,1.31-.7,10.44-6.56,11.08-7.1s.12-.69-1.19-.15M91,44.88c-.61.28-.84.66-1,1.61a1.35,1.35,0,0,0,.15,1c.24.32.26.32.88,0,2.36-1.14,2.8-.7,1.19,1.2-.82,1-.86,1.41-.12,1.26a6,6,0,0,0,2.7-1.74,2.21,2.21,0,0,0-.49-3.18A4.87,4.87,0,0,0,91,44.88m51.78.55a1.7,1.7,0,0,0,.3,2.63c.58.46.82.45,1.32-.09l.42-.45.63.37a2.72,2.72,0,0,0,1,.36c.5,0,1.07-.6,1.2-1.27.09-.43,0-.6-.39-1a1.15,1.15,0,0,0-1.8-.09,2.17,2.17,0,0,1-.63.41c-.08,0-.35-.26-.6-.58-.51-.63-1.05-.74-1.47-.28m20.77.12c-.64,1-3.67,15.72-3.51,17.06.09.7.44.63.79-.17.91-2,3.71-16.19,3.38-17q-.21-.55-.66.15m-19.8,5.7A15.51,15.51,0,0,0,141.53,55a5.26,5.26,0,0,0-.25,1.52c0,1.47.78,2.2,2.41,2.2A3.57,3.57,0,0,0,147.13,56a4.08,4.08,0,0,0-1.6-4.85c-.85-.62-1.2-.61-1.82.06m24.64,1.14a1.88,1.88,0,0,0,.06,2.29c.46.67.46.68.89.45.86-.47,1.3-2.28.68-2.84a1.21,1.21,0,0,0-1.63.1M80,52.29c-.58.24.14,1.31,4,6s5.71,7.3,5.86,8.41-2,3.62-4,4.56c-.77.35-.93.37-1.36.19-.63-.26-1.43-1.23-2.32-2.85a5.76,5.76,0,0,0-.9-1.35c-.49-.17.5,3.13,1.37,4.56a7.09,7.09,0,0,0,2.8,2.65c1,.2,2.47-.42,3.83-1.66a6.74,6.74,0,0,0,2.34-5.34c-.15-1.15-1.31-3.28-3.11-5.74-2.74-3.73-4.24-5.86-4.89-7a13.77,13.77,0,0,0-1-1.45A3.47,3.47,0,0,0,80,52.29m63.5,2.07c-1,.44-.27,1.65.92,1.55.72-.06.86-.5.36-1.14a1,1,0,0,0-1.28-.41m11.18.42c-.31.59-.35,1.53-.18,3.62a3.81,3.81,0,0,1-.23,2.41c-.94,2.17-3.83,3.46-7.81,3.47a5.15,5.15,0,0,0-1.59.15c-.14.23.39.62,1.62,1.2a4.57,4.57,0,0,0,2.7.54,4.38,4.38,0,0,0,2.65-.53c3.45-1.7,5.74-7.37,4.21-10.46-.49-1-1-1.13-1.37-.4m14.77,5.38c-.78.83-.83,1.09-.71,3.22s.12,2.27-1.43,3.34c-1.94,1.33-3.16,1.55-6.83,1.23s-3.58-.37-1.79.81a9.5,9.5,0,0,0,4.39,1.75,4.28,4.28,0,0,1,2.81,1.17,14.42,14.42,0,0,0,3.94,2.52c1,.33,1.95.19,3.82-.59a11.06,11.06,0,0,0,5.78-5,4.9,4.9,0,0,0,.66-2.71c.06-1.92-.23-2.6-1.15-2.67-1.64-.14-4,2.24-4,4a1.64,1.64,0,0,0,.42,1c.37.45.53.51,1.27.51,1.84,0,1.65.56-.56,1.68a10.21,10.21,0,0,1-5.8,1.22,9.91,9.91,0,0,1-3.4-.61,6.48,6.48,0,0,1-1.59-.66,2.38,2.38,0,0,1,.78-.57,8.27,8.27,0,0,0,4.15-4.8c.54-1.68.44-5.26-.15-5.26a1.59,1.59,0,0,0-.56.45M129.28,70.65c-2,.93-3.25,4.92-1.88,6.2.49.46.68,1.15.78,2.86l.09,1.6h-29c-26.36,0-37.88.12-38.9.41-.75.22-.34.53,1.4,1,10.2,3,30.91,5.78,50.28,6.82,7,.37,10.08.69,11,1.11.3.14.44.38.52.9.24,1.39.79,7.25,1.2,12.71,2.51,33.85,4.5,62,4.5,63.63v.45l-.77-.39c-.43-.22-1.46-.85-2.29-1.39a40.55,40.55,0,0,0-15.76-6.27,48.11,48.11,0,0,0-10-.31c-2.7.31-8.93,1.4-14.64,2.55-9.85,2-14.79,2.82-18.86,3.21l-2.17.2v9.6h57.15l2.77,2.2c3.66,2.92,5.29,4,6,4a4.5,4.5,0,0,0,1.3-.82c.56-.45,2.34-1.7,3.94-2.78l2.92-2h57.71V166l-2.5-.2a114.16,114.16,0,0,1-15.74-2.66c-5.49-1.25-11-2.36-13.76-2.77A51.32,51.32,0,0,0,154,160c-5,.65-16.22,4.68-19.76,7.11a9.17,9.17,0,0,1-2.18,1.25c-.64,0,4.37-71.52,5.44-77.52.08-.46.16-.53.77-.61s6.83-.51,10.09-.67c20.34-1,38.38-3.55,52.44-7.42l2.28-.63-1.87-.11c-1-.06-16.91-.11-35.3-.11H132.48V80c0-1.27,0-1.35.87-2.83a6.69,6.69,0,0,0,.22-3.94,4.19,4.19,0,0,0-2-2.61,2.49,2.49,0,0,0-2.33,0M66.45,93.08a27,27,0,0,0-.29,2.74c-.28,3.65-.28,44.84,0,48.73.18,2.59.33,3.32.6,2.9s.45-6,.53-22.85c.08-17.24-.06-28.72-.38-31-.1-.67-.26-.87-.46-.55m128.47,0a27,27,0,0,0-.29,2.74c-.28,3.65-.28,44.84,0,48.73.18,2.59.33,3.32.6,2.9s.45-6,.53-22.85c.08-17.24-.06-28.72-.38-31-.1-.67-.26-.87-.46-.55M68.49,95.3c-.15.19-.07.66.41,2.33,2.7,9.43,15.29,47.05,16.61,49.65.36.7.71.88,1,.55s.19-.43-.17-1.75c-1.77-6.49-13.27-41-16.26-48.85-.49-1.29-1-2.17-1.3-2.17a.61.61,0,0,0-.33.24M197,95.3c-.15.19-.07.66.41,2.33,2.7,9.43,15.29,47.05,16.61,49.65.36.7.71.88,1.05.55s.18-.43-.18-1.75c-1.77-6.49-13.26-41-16.26-48.85-.49-1.29-1-2.17-1.3-2.17a.61.61,0,0,0-.33.24m-133.28.22c-.28.31-1.24,3-7.5,21.22-8,23.13-10.4,31-9.63,31s4.69-10.62,15.81-43.35c1.39-4.08,2.53-7.68,2.53-8,0-1.1-.62-1.55-1.21-.9m128.47,0c-.28.31-1.23,3-7.49,21.22-8,23.13-10.41,31-9.64,31s4.69-10.62,15.81-43.35c1.39-4.08,2.53-7.68,2.53-8,0-1.1-.61-1.55-1.21-.9M50.1,151a39.76,39.76,0,0,0-4.55.27c-.08.09.35.46,1.07.92s2,1.4,3,2.16l1.77,1.38,14.82,0c8.14,0,14.33-.08,13.74-.14s-.84-.11-.49-.13A4.37,4.37,0,0,0,82.3,154a17.21,17.21,0,0,1,2.1-1.58c.56-.33,1.14-.67,1.27-.76,1.09-.66-2.79-.83-18.66-.8-6.88,0-14.49.07-16.91.14m128.47,0a40,40,0,0,0-4.55.27c-.08.09.35.46,1.08.92s2,1.39,3,2.15l1.78,1.39h11.45c11.33,0,16.44-.14,17.64-.49a6.69,6.69,0,0,0,1.8-1.23,16,16,0,0,1,2.13-1.59c.52-.29,1.07-.62,1.23-.73.6-.41-.07-.56-3.1-.71-3.54-.17-26.11-.16-32.44,0m-14.28,36.22c-.16.42.83,2.27,2.84,5.34,2.27,3.44,5.33,7.73,6.15,8.63.68.73,1.09.89,1.09.41,0-1-7.36-12.11-9.23-13.94-.62-.61-.76-.68-.85-.44m-53.65,2.11c-1.07,2.41-3.86,14-3.86,16,0,.78.23,1,.56.47.76-1.19,3.89-13.81,4.06-16.4.07-1.14-.27-1.16-.76,0m-6.89-.51a3.72,3.72,0,0,0-1.57,1.86c-.9,1.87-.49,2.67,1.25,2.46a22.83,22.83,0,0,0,3.78-1,3,3,0,0,0-1-.35c-1.39-.35-2.5-1-2.5-1.41s.08-.31.9-.21l.9.1v-.57a1.07,1.07,0,0,0-1.72-.92m56.22.28c0,.58,1.46,3,3.73,6.26.92,1.32,2.15,3.16,2.73,4.09,1,1.61,1,1.7.78,2-.66.72-4.38,2.23-6.13,2.49-1,.14-1.24.42-.87,1,.72,1.1,2.37,1.36,4.65.73s3.82-1.67,4-2.88-.8-3.42-2.79-6.28a33.92,33.92,0,0,1-3.26-5.61,3.86,3.86,0,0,0-2.51-2.25c-.3,0-.37.09-.37.47M148.7,191a60.15,60.15,0,0,0-6.44,2.07c-.66.34-.57.59.16.45a55.88,55.88,0,0,0,9.13-2.76c.3-.22.28-.24-.33-.24a16,16,0,0,0-2.52.48m-52.59,5.52a4.62,4.62,0,0,0-.94,2.63,7.17,7.17,0,0,1-1.33,3.68c-.93,1.13-1.06,1.16-5.24,1-2.67-.09-3.74-.07-3.83.06s1,1.26,2,1.78a4.33,4.33,0,0,0,2.45.44,4.34,4.34,0,0,0,2.66-.54,12.08,12.08,0,0,0,2.45-1.79c2.17-2,2.37-2.07,4-1.52a6.68,6.68,0,0,0,1.76.33c1.77,0,2.52-1,3.16-4.05.29-1.41.22-2-.23-2-.81,0-1.46,1.1-1.74,2.95a2.31,2.31,0,0,1-.31.89c-.21.29-.24.29-1-.06a6.18,6.18,0,0,1-3-3.91c-.08-.3-.63-.25-.92.08m18.35.2c-.8.8-.52,1.71.73,2.38.57.31.58.31.93,0a2.78,2.78,0,0,0,.9-2c-.11-.46-.86-.88-1.57-.88a1.37,1.37,0,0,0-1,.48m36.09,3.84a2.69,2.69,0,0,0-1.4,1.79,4.14,4.14,0,0,0,.08,2.19,2.31,2.31,0,0,0,1-.34,7.13,7.13,0,0,1,4-.48l1,.13-2.67,1.42A34.37,34.37,0,0,1,148.9,207c-1.81.6-4.22.72-13.61.63-12.93-.12-15.41-.5-17.93-2.74a4.72,4.72,0,0,0-1.41-1c-.7,0-.84,1-.59,4.2.13,1.71.12,1.87-.22,2.58-.64,1.31-1.86,1.83-6.4,2.72a23,23,0,0,0-2.83.66c-.22.18,3.86,1.46,4.67,1.46a4.25,4.25,0,0,0,1.41-.33,12.24,12.24,0,0,0,3.9-4,10.21,10.21,0,0,1,1.4-1.84,2.26,2.26,0,0,1,1.9-.11c1.82.52,7.72,1.09,13.84,1.34,8.15.32,15.18-.34,17.83-1.68.38-.19,1.82-1.08,3.21-2a33.51,33.51,0,0,1,7.34-3.88c1.33-.39,2.25-1.06,2.08-1.51s-1.1-.66-5.16-.8c-2.2-.08-4.4-.21-4.89-.31a5.43,5.43,0,0,0-2.89.06m6.32,8.71c-.69.88-.18,2.35.82,2.35.59,0,1-.57,1-1.39,0-1.29-1.1-1.87-1.82-1"/></g></g></svg>