<svg width="800" height="800" viewBox="0 0 800 800" fill="none" xmlns="http://www.w3.org/2000/svg">
<path d="M400 80C224 80 80 224.257 80 401.928C80 562.57 197.12 695.904 350.08 720V495.101H268.8V401.928H350.08V330.923C350.08 250.281 397.76 205.944 471.04 205.944C505.919 205.944 542.399 212.048 542.399 212.048V291.405H502.079C462.4 291.405 449.92 316.144 449.92 341.527V401.928H538.879L524.479 495.101H449.92V720C525.324 708.042 593.99 669.414 643.516 611.084C693.042 552.758 720.172 478.574 719.999 401.928C719.999 224.257 575.999 80 400 80Z" fill="#B46529"/>
</svg>
