<svg width="800" height="800" viewBox="0 0 800 800" fill="none" xmlns="http://www.w3.org/2000/svg">
<path d="M393 66C212.384 66 66 212.384 66 393C66 573.616 212.384 720 393 720C573.616 720 720 573.616 720 393C720 212.384 573.616 66 393 66ZM301.542 529.803H237.803V325.812H301.542V529.803ZM267.948 300.265H267.437C244.317 300.265 229.372 284.681 229.372 264.882C229.372 244.7 244.828 229.5 268.331 229.5C291.834 229.5 306.268 244.7 306.779 264.882C306.907 284.554 291.962 300.265 267.948 300.265ZM556.5 529.803H484.202V424.295C484.202 396.704 472.962 377.8 448.054 377.8C429.021 377.8 418.419 390.573 413.565 402.836C411.777 407.179 412.032 413.31 412.032 419.569V529.803H340.373C340.373 529.803 341.268 342.8 340.373 325.812H412.032V357.873C416.248 343.822 439.112 323.896 475.644 323.896C520.99 323.896 556.5 353.275 556.5 416.375V529.803Z" fill="#B46529" stroke="#B46529" stroke-width="0.125"/>
</svg>
