<svg width="2948" height="767" viewBox="0 0 2948 767" fill="none" xmlns="http://www.w3.org/2000/svg">
<path d="M697.466 194.319C658.956 129.88 601.698 78.793 533.382 47.9181C465.065 17.0431 388.96 7.85799 315.284 21.5961C241.609 35.3341 173.89 71.3376 121.22 124.773C68.5505 178.207 33.4516 246.516 20.6359 320.526C7.82028 394.535 17.9014 470.704 49.5259 538.804C81.1503 606.905 132.804 663.677 197.552 701.498C262.299 739.318 337.041 756.378 411.742 750.385C486.443 744.392 557.526 715.634 615.448 667.972C683.488 611.984 729.199 533.359 744.254 446.42C759.308 359.482 742.704 270.015 697.466 194.319ZM561.701 509.153C558.905 515.07 557.041 517.25 541.507 533.132L521.935 553.062C515.607 558.396 508.281 562.411 500.385 564.87C492.49 567.33 484.184 568.186 475.955 567.387C445.6 564.745 416.208 555.385 389.898 539.983C331.226 509.062 281.233 463.877 244.501 408.568C236.571 397.072 229.509 384.997 223.375 372.445C206.912 344.103 198.43 311.815 198.832 279.022C199.383 270.563 201.651 262.305 205.497 254.755C209.344 247.205 214.687 240.521 221.201 235.114C244.191 210.512 252.268 203.973 262.21 200.547C269.166 198.99 276.38 198.99 283.336 200.547C292.345 203.35 294.52 205.218 324.034 234.802C353.549 264.386 352.616 263.452 355.102 268.746C357.519 273.133 358.964 277.991 359.34 282.989C359.715 287.986 359.011 293.006 357.277 297.707C354.791 304.869 350.752 309.54 335.219 325.422L324.656 336.01C323.544 337.55 322.945 339.403 322.945 341.304C322.945 343.205 323.544 345.058 324.656 346.598C347.452 385.052 379.495 417.17 417.858 440.021C420.076 441.146 422.591 441.541 425.045 441.149C427.5 440.758 429.768 439.6 431.528 437.841L441.47 428.187C447.431 421.692 453.87 415.655 460.732 410.125C466.051 407.153 472.039 405.593 478.129 405.593C484.219 405.593 490.208 407.153 495.527 410.125C500.809 412.617 502.983 414.485 529.701 441.266C556.42 468.047 558.284 469.605 560.769 475.833C563.771 480.837 565.433 486.533 565.597 492.37C565.76 498.208 564.418 503.988 561.701 509.153Z" fill="#B46529" stroke="#B46529" stroke-linecap="round" stroke-linejoin="round"/>
<path d="M1016.22 276.531C1029.33 275.694 1042.46 277.9 1054.58 282.977C1066.71 288.054 1077.5 295.865 1086.12 305.803C1104.12 329.844 1112.83 359.596 1110.67 389.572C1112.64 419.528 1103.94 449.213 1086.12 473.341C1077.5 483.28 1066.71 491.091 1054.58 496.168C1042.46 501.245 1029.33 503.451 1016.22 502.614C1003.06 503.428 989.897 501.214 977.727 496.14C965.556 491.066 954.706 483.268 946.007 473.341C928.332 449.141 919.65 419.51 921.464 389.572C919.544 359.623 928.236 329.956 946.007 305.803C954.706 295.877 965.556 288.079 977.727 283.005C989.897 277.931 1003.06 275.716 1016.22 276.531ZM1016.22 304.558C1008.02 304.049 999.827 305.708 992.467 309.37C985.106 313.032 978.834 318.567 974.279 325.422C962.957 344.814 957.657 367.148 959.056 389.572C957.456 411.797 962.427 434.002 973.347 453.411C978.201 459.98 984.523 465.318 991.807 468.995C999.09 472.673 1007.13 474.589 1015.29 474.589C1023.44 474.589 1031.49 472.673 1038.77 468.995C1046.05 465.318 1052.37 459.98 1057.23 453.411C1067.89 433.912 1072.74 411.755 1071.21 389.572C1072.82 367.285 1067.96 345.007 1057.23 325.422C1052.76 318.708 1046.63 313.262 1039.45 309.607C1032.27 305.953 1024.27 304.214 1016.22 304.558Z" fill="#B46529"/>
<path d="M1130.55 278.088H1300.8V305.181L1207.6 501.057H1166.59L1265.38 295.216L1275.01 309.852H1147.95L1164.72 293.659V341.304H1130.55V278.088Z" fill="#B46529"/>
<path d="M1312.29 278.088H1481.61V305.181L1388.41 501.057H1348.02L1446.82 295.216L1456.45 309.852H1329.38L1346.16 293.659V341.304H1312.29V278.088Z" fill="#B46529"/>
<path d="M1493.11 278.088H1578.54V501.057H1540.95V293.347L1557.42 309.852H1493.11V278.088Z" fill="#B46529"/>
<path d="M1797.88 372.134C1816.13 372.447 1833.79 378.674 1848.21 389.884C1854.49 394.877 1859.51 401.287 1862.86 408.593C1866.21 415.898 1867.79 423.892 1867.47 431.924C1867.59 444.942 1863.92 457.711 1856.91 468.67C1849.11 479.755 1838.34 488.394 1825.84 493.583C1811.12 499.882 1795.24 502.961 1779.24 502.614C1764.5 502.547 1749.85 500.344 1735.74 496.074C1722.65 492.314 1710.27 486.422 1699.08 478.635L1714.62 449.986C1723.34 457.195 1733.21 462.88 1743.82 466.802C1754.5 470.596 1765.73 472.596 1777.06 472.719C1786.92 472.852 1796.71 471.163 1805.96 467.736C1813.19 464.763 1819.51 459.929 1824.29 453.723C1828.38 447.54 1830.54 440.277 1830.5 432.858C1830.87 427.284 1829.74 421.712 1827.23 416.726C1824.71 411.74 1820.91 407.524 1816.21 404.52C1804.4 397.502 1790.78 394.143 1777.06 394.866H1746V372.756L1822.42 297.084L1827.7 309.852H1710.58V278.711H1856.91V301.444L1773.34 382.41L1768.68 369.642L1797.88 372.134Z" fill="#B46529"/>
<path d="M1885.18 278.088H1970.61V501.057H1933.33V293.347L1949.8 309.852H1885.18V278.088Z" fill="#B46529"/>
<path d="M2189.33 276.531C2202.91 276.176 2216.42 278.504 2229.1 283.382C2239.33 287.416 2248.18 294.339 2254.57 303.312C2260.6 312.546 2263.64 323.422 2263.27 334.453C2263.5 344.689 2260.45 354.728 2254.57 363.103C2248.62 371.513 2240.44 378.092 2230.96 382.099C2243.2 386.204 2253.99 393.775 2262.03 403.897C2270.03 413.718 2274.22 426.103 2273.83 438.775C2274.17 450.857 2270.69 462.738 2263.89 472.719C2255.85 482.904 2245.07 490.575 2232.82 494.829C2203.69 505.209 2171.87 505.209 2142.73 494.829C2130.45 490.806 2119.64 483.219 2111.66 473.03C2104.73 463.097 2101.14 451.206 2101.41 439.086C2101.13 426.188 2105.42 413.609 2113.53 403.586C2122.36 393.498 2133.73 385.971 2146.46 381.787C2136.47 377.466 2127.8 370.593 2121.29 361.857C2115.42 353.115 2112.28 342.814 2112.28 332.273C2112.28 321.732 2115.42 311.431 2121.29 302.689C2127.72 293.895 2136.58 287.183 2146.77 283.382C2160.3 278.063 2174.82 275.727 2189.33 276.531ZM2189.33 397.358C2176.4 396.581 2163.6 400.202 2152.98 407.634C2148.81 410.903 2145.48 415.124 2143.26 419.944C2141.05 424.765 2140.01 430.047 2140.24 435.35C2140.01 440.832 2141.04 446.296 2143.25 451.317C2145.46 456.339 2148.79 460.784 2152.98 464.311C2163.71 471.743 2176.62 475.361 2189.64 474.587C2202.67 475.41 2215.59 471.788 2226.3 464.311C2230.6 460.93 2234.03 456.563 2236.3 451.578C2238.57 446.593 2239.62 441.134 2239.35 435.661C2239.59 430.249 2238.49 424.862 2236.16 419.974C2233.83 415.086 2230.34 410.848 2225.99 407.634C2215.28 400.157 2202.36 396.535 2189.33 397.358ZM2189.33 302.067C2178.25 301.447 2167.29 304.633 2158.26 311.097C2154.75 314.224 2151.94 318.06 2150.02 322.354C2148.09 326.648 2147.1 331.303 2147.1 336.01C2147.1 340.718 2148.09 345.372 2150.02 349.666C2151.94 353.96 2154.75 357.797 2158.26 360.923C2167.63 366.612 2178.38 369.62 2189.33 369.62C2200.28 369.62 2211.03 366.612 2220.4 360.923C2223.82 357.745 2226.56 353.892 2228.43 349.604C2230.3 345.317 2231.26 340.689 2231.26 336.01C2231.26 331.331 2230.3 326.703 2228.43 322.416C2226.56 318.129 2223.82 314.275 2220.4 311.097C2211.53 304.479 2200.69 301.075 2189.64 301.444L2189.33 302.067Z" fill="#B46529"/>
<path d="M2357.1 376.805L2349.02 360.611H2360.2H2391.27C2406.34 360.215 2421.3 363.193 2435.07 369.331C2446.75 374.608 2456.75 383.013 2463.97 393.621C2470.77 403.966 2474.34 416.109 2474.22 428.499C2474.48 442.359 2470.7 455.994 2463.35 467.736C2455.8 479.343 2444.99 488.446 2432.28 493.894C2418.06 500.425 2402.55 503.62 2386.92 503.237C2372.45 503.008 2358.1 500.594 2344.36 496.074C2330.28 491.919 2316.89 485.73 2304.59 477.701L2319.81 449.052C2329.23 456.244 2339.72 461.918 2350.88 465.868C2361.4 469.882 2372.55 471.991 2383.81 472.096C2396.64 472.465 2409.19 468.273 2419.23 460.262C2423.73 456.478 2427.28 451.691 2429.6 446.283C2431.92 440.875 2432.94 434.997 2432.59 429.121C2432.81 423.7 2431.74 418.303 2429.47 413.376C2427.2 408.449 2423.8 404.133 2419.54 400.783C2408 393.075 2394.22 389.458 2380.4 390.507H2369.21H2353.06H2336.28H2321.99V278.088H2463.04V309.229H2338.77L2355.54 292.724L2357.1 376.805Z" fill="#B46529"/>
<path d="M2574.57 445.626V418.845L2650.37 278.088H2686.41L2607.5 426.007L2599.11 412.305H2751.65V443.446L2574.57 445.626ZM2682.99 359.677H2717.79V501.057H2683.62L2682.99 359.677Z" fill="#B46529"/>
<path d="M2926.56 320.128C2919.53 315.23 2911.62 311.741 2903.26 309.852C2894.88 307.402 2886.2 306.144 2877.48 306.115C2864.78 305.617 2852.25 309.219 2841.75 316.391C2832.16 324.013 2825.02 334.305 2821.24 345.975C2816.68 360.14 2814.68 375.012 2815.34 389.884C2821.03 379.513 2829.54 370.98 2839.89 365.283C2851.1 359.451 2863.6 356.558 2876.23 356.875C2889.53 356.541 2902.7 359.651 2914.45 365.905C2925.02 371.405 2933.68 379.981 2939.3 390.507C2945.19 402.158 2947.98 415.139 2947.38 428.187C2947.77 441.998 2944.44 455.659 2937.75 467.736C2931.3 478.808 2921.81 487.782 2910.41 493.583C2897.44 499.84 2883.17 502.934 2868.78 502.614C2851.88 502.55 2835.37 497.573 2821.24 488.289C2807.41 479.342 2796.59 466.429 2790.18 451.231C2782.68 433.396 2778.88 414.22 2778.99 394.866C2778.74 373.399 2783.2 352.138 2792.04 332.585C2798.29 316.119 2809.06 301.76 2823.11 291.167C2838.18 281.133 2855.98 276.02 2874.06 276.531C2885.68 276.687 2897.25 278.149 2908.54 280.891C2919.39 283.679 2929.84 287.866 2939.61 293.347L2926.56 320.128ZM2869.09 384.901C2860.2 384.699 2851.41 386.847 2843.61 391.13C2836.68 394.963 2830.97 400.685 2827.15 407.634C2823.38 414.273 2821.45 421.798 2821.56 429.433C2821.67 434.508 2822.51 439.541 2824.04 444.38C2825.8 449.508 2828.67 454.185 2832.43 458.082C2836.47 462.336 2841.34 465.725 2846.72 468.048C2853.27 470.94 2860.38 472.324 2867.54 472.096C2875.82 472.259 2884.02 470.444 2891.46 466.802C2898.14 463.411 2903.65 458.097 2907.3 451.543C2911.25 444.285 2913.28 436.14 2913.2 427.876C2913.44 422.155 2912.51 416.445 2910.48 411.093C2908.46 405.741 2905.36 400.856 2901.4 396.735C2892.58 388.72 2880.99 384.474 2869.09 384.901Z" fill="#B46529"/>
</svg>
