<svg width="800" height="800" viewBox="0 0 800 800" fill="none" xmlns="http://www.w3.org/2000/svg">
<path d="M733.706 472.896L638.667 156.492H421.727V117.233C421.727 106.61 411.104 95.6875 400.181 95.6875C389.558 95.6875 378.635 106.311 378.635 117.233V156.784H161.696L66.6561 472.896H64.5898H53.9665C53.9665 544.615 112.113 603.061 184.132 603.061C256.151 603.061 314.297 544.914 314.297 472.896H301.9H299.834L210.109 176.263H380.416V637.888H211.883V704H233.429H400.188H566.947H588.493V637.888H419.96V176.263H590.267L500.543 472.896H498.476H486.079C486.079 544.615 544.226 603.061 616.244 603.061C688.263 603.061 746.396 544.914 746.396 472.896H735.773H733.706ZM270.315 472.896H97.9417L183.241 185.12L270.315 472.896ZM530.048 472.896L617.121 185.12L702.421 472.896H530.048Z" fill="#B46529" stroke="#B46529" stroke-width="3.125"/>
</svg>
