<svg width="800" height="800" viewBox="0 0 800 800" fill="none" xmlns="http://www.w3.org/2000/svg">
<path d="M484.89 687.981C484.865 693.862 482.518 699.496 478.359 703.655C474.2 707.814 468.566 710.161 462.685 710.186H116.382C110.5 710.161 104.867 707.814 100.708 703.655C96.5491 699.496 94.2017 693.862 94.1771 687.981V647.638C94.2017 641.757 96.5491 636.123 100.708 631.964C104.867 627.805 110.5 625.458 116.382 625.433H462.685C468.57 625.446 474.211 627.789 478.372 631.951C482.534 636.112 484.877 641.753 484.89 647.638V687.981ZM355.54 567.046C352.134 567.048 348.761 566.376 345.616 565.068C342.471 563.761 339.616 561.843 337.215 559.426L187.765 410.023C182.905 405.162 180.174 398.571 180.174 391.698C180.174 384.824 182.905 378.233 187.765 373.373C192.625 368.513 199.217 365.782 206.09 365.782C212.963 365.782 219.555 368.513 224.415 373.373L373.818 522.87C377.445 526.492 379.916 531.109 380.917 536.136C381.918 541.163 381.405 546.374 379.443 551.109C377.481 555.844 374.158 559.891 369.895 562.736C365.631 565.581 360.619 567.098 355.494 567.093L355.54 567.046ZM698.197 613.419L490.453 405.628L541.173 354.954L392.844 206.626L254.006 345.465L402.334 493.747L453.85 442.278L661.64 650.069C664.047 652.475 666.904 654.384 670.048 655.687C673.192 656.989 676.562 657.659 679.965 657.659C683.369 657.659 686.738 656.989 689.883 655.687C693.027 654.384 695.884 652.475 698.29 650.069C700.697 647.663 702.606 644.806 703.908 641.661C705.21 638.517 705.881 635.147 705.881 631.744C705.881 628.341 705.21 624.971 703.908 621.827C702.606 618.683 700.697 615.826 698.29 613.419H698.197ZM589.276 333.264C585.881 333.266 582.519 332.598 579.382 331.299C576.246 329.999 573.396 328.093 570.998 325.691L421.5 176.24C419.094 173.834 417.185 170.977 415.883 167.833C414.58 164.688 413.91 161.319 413.91 157.915C413.91 154.512 414.58 151.142 415.883 147.998C417.185 144.854 419.094 141.997 421.5 139.59C423.907 137.184 426.764 135.275 429.908 133.973C433.052 132.67 436.422 132 439.825 132C443.229 132 446.599 132.67 449.743 133.973C452.887 135.275 455.744 137.184 458.15 139.59L607.554 289.041C611.178 292.66 613.648 297.273 614.65 302.295C615.653 307.318 615.144 312.525 613.188 317.258C611.231 321.992 607.916 326.039 603.659 328.888C599.403 331.736 594.398 333.259 589.276 333.264Z" fill="#B46529"/>
</svg>
